<svg width="331" height="50" viewBox="0 0 331 50" fill="none" xmlns="http://www.w3.org/2000/svg">
<g clip-path="url(#clip0_1417_2227)">
<path d="M282.553 16.2496L282.672 11.0068H271.419C266.057 11.0068 263.331 13.6381 263.242 18.9008C263.163 23.0712 265.273 25.5535 269.571 26.3479L275.249 27.2714C276.535 27.5097 277.156 28.5076 277.127 30.2502C277.176 30.5818 277.149 30.9202 277.048 31.2398C276.948 31.5593 276.776 31.8515 276.546 32.0942C276.317 32.3369 276.035 32.5237 275.723 32.6403C275.411 32.757 275.077 32.8004 274.746 32.7674H262.991V32.8716L262.873 37.9804H274.85C280.242 37.9804 282.987 35.3341 283.086 30.0417C283.164 25.8018 281.07 23.3194 276.801 22.5946L271.123 21.6711C270.805 21.6192 270.499 21.5033 270.226 21.3303C269.952 21.1573 269.716 20.9307 269.532 20.6639C269.347 20.3972 269.217 20.0957 269.15 19.7775C269.083 19.4593 269.08 19.1307 269.142 18.8114C269.094 18.4749 269.124 18.1319 269.229 17.8087C269.334 17.4856 269.511 17.1911 269.747 16.9479C269.982 16.7046 270.271 16.5192 270.589 16.4059C270.907 16.2925 271.247 16.2544 271.582 16.2943H282.568L282.553 16.2496Z" fill="#24326F"/>
<path d="M119.681 29.8183L119.873 19.1093C119.972 13.7077 122.702 11.0068 128.065 11.0068H135.192C140.515 11.0068 143.127 13.7077 143.029 19.1093L142.837 29.8183C142.738 35.2199 140.027 37.9208 134.704 37.9208H127.577C122.214 37.9208 119.583 35.2199 119.681 29.8183ZM125.596 30.3396C125.543 30.6565 125.566 30.9814 125.662 31.2878C125.758 31.5943 125.925 31.8735 126.148 32.1029C126.371 32.3322 126.645 32.5052 126.948 32.6077C127.25 32.7103 127.572 32.7394 127.888 32.6929H134.453C134.772 32.7357 135.096 32.7048 135.401 32.6024C135.706 32.5 135.984 32.3288 136.214 32.1019C136.443 31.875 136.618 31.5983 136.726 31.2929C136.833 30.9875 136.87 30.6615 136.833 30.3396L137.04 18.6029C137.093 18.286 137.07 17.9611 136.974 17.6547C136.878 17.3483 136.711 17.069 136.488 16.8396C136.265 16.6103 135.991 16.4373 135.688 16.3348C135.386 16.2322 135.064 16.203 134.748 16.2496H128.183C127.864 16.2067 127.54 16.2377 127.235 16.3401C126.93 16.4425 126.652 16.6137 126.422 16.8406C126.193 17.0676 126.018 17.3442 125.91 17.6496C125.803 17.955 125.766 18.281 125.803 18.6029L125.596 30.3396Z" fill="#24326F"/>
<path d="M228.967 37.9208C223.615 37.9208 220.983 35.2547 221.071 29.9226C221.16 24.5904 223.886 21.9243 229.248 21.9243H237.129V18.588C237.182 18.2711 237.159 17.9462 237.063 17.6398C236.967 17.3333 236.8 17.0541 236.577 16.8247C236.354 16.5954 236.08 16.4224 235.778 16.3199C235.475 16.2173 235.153 16.1882 234.838 16.2347H224.044V13.0027L226.72 11.0068H235.163C240.486 11.0068 243.098 13.7077 243 19.1093L242.66 37.9208H228.879H228.967ZM227.016 30.3396C226.963 30.6565 226.986 30.9814 227.082 31.2878C227.178 31.5943 227.344 31.8735 227.568 32.1029C227.791 32.3322 228.065 32.5052 228.368 32.6077C228.67 32.7103 228.992 32.7394 229.307 32.6929H236.893L237.011 26.6011H229.426C229.11 26.5535 228.788 26.5796 228.483 26.6774C228.179 26.7752 227.901 26.9421 227.671 27.1652C227.441 27.3883 227.265 27.6616 227.157 27.964C227.048 28.2665 227.01 28.59 227.045 28.9097L227.016 30.3396Z" fill="#24326F"/>
<path d="M286.501 37.9207L286.62 31.2629H293.229L293.111 37.9207H286.501Z" fill="#ED1C24"/>
<path d="M297.443 37.9207L297.931 11.0217H303.846L303.358 37.9207H297.443ZM297.857 6.34492L297.961 0.253174H304.215L304.112 6.34492H297.857Z" fill="#ED1C24"/>
<path d="M307.705 29.8183L307.897 19.1093C307.996 13.7077 310.726 11.0068 316.089 11.0068H324.739L324.931 -0.0148926H330.846L330.165 37.9059H315.571C310.228 37.9158 307.606 35.2199 307.705 29.8183ZM313.619 30.3396C313.567 30.6566 313.59 30.9814 313.686 31.2879C313.782 31.5943 313.948 31.8735 314.172 32.1029C314.395 32.3322 314.669 32.5052 314.971 32.6077C315.274 32.7103 315.596 32.7394 315.911 32.6929H324.369L324.665 16.3092H316.266C315.947 16.2663 315.623 16.2973 315.318 16.3997C315.013 16.5021 314.735 16.6733 314.505 16.9002C314.276 17.1271 314.101 17.4038 313.993 17.7092C313.886 18.0146 313.849 18.3406 313.886 18.6625L313.619 30.3396Z" fill="#ED1C24"/>
<path d="M108.266 11.0068H93.6127L93.524 16.2347H107.867C108.182 16.1882 108.504 16.2173 108.807 16.3199C109.109 16.4224 109.383 16.5954 109.606 16.8247C109.83 17.0541 109.996 17.3333 110.092 17.6398C110.188 17.9462 110.211 18.2711 110.159 18.588L109.966 30.3396C110.003 30.6615 109.966 30.9875 109.859 31.2929C109.751 31.5983 109.576 31.875 109.347 32.1019C109.117 32.3288 108.839 32.5 108.534 32.6024C108.229 32.7048 107.905 32.7357 107.586 32.6929H99.1724L99.3942 20.3157H93.4796L92.9769 48.1829H98.8915L99.0837 37.9357H107.793C113.116 37.9357 115.827 35.2348 115.925 29.8332L116.118 19.1242C116.206 13.7126 113.589 11.0068 108.266 11.0068Z" fill="#24326F"/>
<path d="M224.221 11.0068H230.564L231.57 16.2496H224.103L224.221 11.0068Z" fill="#24326F"/>
<path d="M169.925 16.2347H176.343L176.446 11.0068H170.029L170.177 2.54688H164.262L163.774 29.8033C163.676 35.205 166.308 37.9058 171.67 37.9058H179.196L179.315 32.6928H172.025C171.709 32.7394 171.387 32.7102 171.085 32.6077C170.783 32.5052 170.509 32.3322 170.285 32.1028C170.062 31.8735 169.896 31.5942 169.8 31.2878C169.704 30.9814 169.681 30.6565 169.733 30.3396L169.925 16.2347Z" fill="#24326F"/>
<path d="M209.035 16.2347H215.453L215.556 11.0068H209.035L209.183 2.54688H203.269L202.781 29.8033C202.682 35.205 205.314 37.9058 210.677 37.9058H218.203L218.321 32.6928H211.031C210.716 32.7394 210.394 32.7102 210.091 32.6077C209.789 32.5052 209.515 32.3322 209.292 32.1028C209.068 31.8735 208.902 31.5942 208.806 31.2878C208.71 30.9814 208.687 30.6565 208.74 30.3396L209.035 16.2347Z" fill="#24326F"/>
<path d="M89.1916 16.2496L89.3099 11.0068H78.0574C72.6948 11.0068 69.9692 13.6381 69.8805 18.9008C69.8017 23.0712 71.9111 25.5535 76.2091 26.3479L81.8871 27.2714C83.1735 27.5097 83.7945 28.5076 83.765 30.2502C83.8138 30.5818 83.7869 30.9202 83.6864 31.2398C83.5858 31.5593 83.4142 31.8515 83.1847 32.0942C82.9551 32.3369 82.6737 32.5237 82.3617 32.6403C82.0497 32.757 81.7154 32.8004 81.3843 32.7674H69.6291V32.8716L69.5109 37.9804H81.4878C86.8799 37.9804 89.6253 35.3341 89.7238 30.0417C89.8027 25.8018 87.708 23.3194 83.4396 22.5946L77.7616 21.6711C77.4428 21.6192 77.1376 21.5033 76.8642 21.3303C76.5907 21.1573 76.3546 20.9307 76.1698 20.6639C75.985 20.3972 75.8552 20.0957 75.7883 19.7775C75.7214 19.4593 75.7187 19.1307 75.7803 18.8114C75.7327 18.4749 75.7624 18.1319 75.8673 17.8087C75.9721 17.4856 76.1492 17.1911 76.385 16.9479C76.6207 16.7046 76.9088 16.5192 77.227 16.4059C77.5451 16.2925 77.8849 16.2544 78.2201 16.2943H89.2064L89.1916 16.2496Z" fill="#24326F"/>
<path d="M200.504 16.2496L200.622 11.0068H189.369C184.007 11.0068 181.281 13.6381 181.193 18.9008C181.114 23.0712 183.223 25.5535 187.521 26.3479L193.199 27.2714C194.485 27.5097 195.107 28.5076 195.077 30.2502C195.126 30.5818 195.099 30.9202 194.998 31.2398C194.898 31.5593 194.726 31.8515 194.497 32.0942C194.267 32.3369 193.986 32.5237 193.674 32.6403C193.362 32.757 193.028 32.8004 192.696 32.7674H180.941V32.8716L180.823 37.9804H192.77C198.162 37.9804 200.908 35.3341 201.006 30.0417C201.085 25.8018 198.99 23.3194 194.722 22.5946L189.044 21.6711C188.725 21.6192 188.42 21.5033 188.147 21.3303C187.873 21.1573 187.637 20.9307 187.452 20.6639C187.267 20.3972 187.138 20.0957 187.071 19.7775C187.004 19.4593 187.001 19.1307 187.063 18.8114C187.015 18.4749 187.045 18.1319 187.15 17.8087C187.255 17.4856 187.432 17.1911 187.667 16.9479C187.903 16.7046 188.191 16.5192 188.509 16.4059C188.828 16.2925 189.167 16.2544 189.502 16.2943H200.489L200.504 16.2496Z" fill="#24326F"/>
<path d="M154.754 11.0068H154.163C150.954 11.0068 148.736 12.0048 147.42 13.9112C147.256 14.2254 147.137 14.5614 147.066 14.9091L146.651 37.9208H152.566L152.921 17.7688C152.995 17.4138 153.177 17.091 153.443 16.8453C153.708 16.5997 154.042 16.4435 154.4 16.3985C154.742 16.3068 155.095 16.2568 155.449 16.2496H162.118L162.236 11.0068H154.769H154.754Z" fill="#24326F"/>
<path d="M254.577 11.0068H253.986C250.777 11.0068 248.559 12.0048 247.243 13.9112C247.079 14.2254 246.959 14.5613 246.888 14.9091L246.474 37.9208H252.389L252.744 17.7688C252.818 17.4138 253 17.091 253.265 16.8453C253.531 16.5997 253.865 16.4435 254.222 16.3985C254.565 16.3068 254.918 16.2568 255.272 16.2496H261.941L262.059 11.0068H254.577Z" fill="#24326F"/>
<path d="M27.3104 11.2004H16.265C16.265 11.2004 17.2113 16.9198 24.1018 16.9198L27.3104 11.2004Z" fill="white"/>
<path d="M21.6472 25.1562L41.6384 35.6418L42.496 26.6159L21.6472 25.1562Z" fill="#C8161D"/>
<path d="M55.937 6.82154C44.6993 0.521273 31.8203 0.297852 29.8241 0.297852C27.828 0.297852 14.9343 0.521273 3.59308 6.82154C3.59308 6.82154 0.266191 8.48971 0.221832 13.6729L0.118316 24.6946V25.4543L0 36.61C0 41.7932 3.23822 43.4614 3.23822 43.4614C14.4759 49.7617 27.3548 49.9851 29.351 49.9851C31.3471 49.9851 44.2409 49.7617 55.582 43.4614C55.582 43.4614 58.909 41.7932 58.9534 36.61L59.0569 25.4989C59.0569 25.0223 59.0569 24.7393 59.0569 24.7393L59.1604 13.6282C59.2343 8.43013 55.937 6.82154 55.937 6.82154Z" fill="#ED1C24"/>
<path d="M58.9683 36.6103L59.0718 25.4992C59.0718 25.0226 59.0718 24.7396 59.0718 24.7396V22.7735L39.7163 11.2007L23.4513 13.6731L24.3533 23.2054L35.2213 27.1376L32.0127 36.6103L17.5959 38.0997L37.1287 49.3895C43.5879 48.5272 49.8422 46.5096 55.5969 43.4318C55.5969 43.4318 58.9091 41.8084 58.9683 36.6103Z" fill="#C8161D"/>
<path d="M39.1693 16.4284L39.7459 11.1855H28.4935C23.131 11.1855 20.1737 13.8169 19.6217 19.0795C19.1781 23.2499 21.0756 25.7323 25.3144 26.5266L30.9184 27.4501C32.1753 27.6884 32.7224 28.6863 32.545 30.4289C32.5586 30.7722 32.4998 31.1144 32.3724 31.433C32.245 31.7516 32.052 32.0394 31.806 32.2774C31.56 32.5153 31.2668 32.6979 30.9456 32.8132C30.6243 32.9284 30.2825 32.9737 29.9426 32.9461H18.1873V33.0503L17.5959 38.0995H29.5729C34.965 38.0995 37.9223 35.4533 38.4447 30.1608C38.8883 25.921 37.0105 23.4386 32.8111 22.7137L27.2071 21.7902C25.8763 21.5519 25.2996 20.5987 25.477 18.9306C25.4672 18.5832 25.5307 18.2377 25.6632 17.9168C25.7957 17.5959 25.9943 17.307 26.2459 17.0691C26.4974 16.8312 26.7962 16.6498 27.1225 16.5368C27.4487 16.4237 27.795 16.3817 28.1386 16.4134H39.1249L39.1693 16.4284Z" fill="white"/>
</g>
<defs>
<clipPath id="clip0_1417_2227">
<rect width="330.89" height="50" fill="white"/>
</clipPath>
</defs>
</svg>
