<svg width="364" height="55" viewBox="0 0 364 55" fill="none" xmlns="http://www.w3.org/2000/svg">
<g clip-path="url(#clip0_1501_2763)">
<path d="M23.8062 27.6721L45.7911 39.2062L46.7342 29.2777L23.8062 27.6721Z" fill="#C8161D"/>
<path d="M61.5156 7.50385C49.1572 0.573552 34.9938 0.327789 32.7985 0.327789C30.6033 0.327789 16.4237 0.573552 3.95143 7.50385C3.95143 7.50385 0.292739 9.33883 0.243956 15.0403L0.130116 27.1643V27.9998L0 40.2712C0 45.9727 3.56118 47.8077 3.56118 47.8077C15.9196 54.738 30.0829 54.9838 32.2782 54.9838C34.4734 54.9838 48.653 54.738 61.1253 47.8077C61.1253 47.8077 64.7841 45.9727 64.8328 40.2712L64.9467 28.049C64.9467 27.5247 64.9467 27.2134 64.9467 27.2134L65.0605 14.9912C65.1418 9.2733 61.5156 7.50385 61.5156 7.50385Z" fill="#ED1C24"/>
<path d="M310.733 17.8747L310.863 12.1076H298.488C292.591 12.1076 289.593 15.0021 289.496 20.791C289.409 25.3784 291.729 28.109 296.455 28.9828L302.7 29.9986C304.114 30.2608 304.797 31.3585 304.765 33.2754C304.819 33.6401 304.789 34.0124 304.678 34.3638C304.568 34.7153 304.379 35.0368 304.127 35.3038C303.874 35.5707 303.565 35.7762 303.222 35.9045C302.879 36.0328 302.511 36.0806 302.147 36.0442H289.219V36.1589L289.089 41.7785H302.261C308.191 41.7785 311.21 38.8676 311.318 33.046C311.405 28.3821 309.101 25.6515 304.407 24.8541L298.163 23.8384C297.812 23.7813 297.477 23.6538 297.176 23.4635C296.875 23.2731 296.616 23.0238 296.412 22.7304C296.209 22.437 296.066 22.1054 295.993 21.7553C295.919 21.4053 295.916 21.0439 295.984 20.6927C295.932 20.3225 295.964 19.9452 296.079 19.5897C296.195 19.2343 296.39 18.9103 296.649 18.6428C296.908 18.3752 297.225 18.1712 297.575 18.0466C297.925 17.9219 298.298 17.8799 298.667 17.9238H310.749L310.733 17.8747Z" fill="white"/>
<path d="M131.617 32.8002L131.828 21.0204C131.937 15.0785 134.94 12.1076 140.837 12.1076H148.675C154.529 12.1076 157.402 15.0785 157.293 21.0204L157.082 32.8002C156.973 38.742 153.992 41.713 148.138 41.713H140.3C134.403 41.713 131.509 38.742 131.617 32.8002ZM138.121 33.3737C138.064 33.7223 138.089 34.0797 138.195 34.4167C138.3 34.7538 138.483 35.061 138.729 35.3133C138.974 35.5656 139.276 35.7558 139.608 35.8686C139.941 35.9814 140.295 36.0135 140.642 35.9623H147.862C148.212 36.0094 148.569 35.9754 148.905 35.8628C149.24 35.7501 149.546 35.5618 149.798 35.3122C150.051 35.0626 150.243 34.7582 150.362 34.4223C150.48 34.0864 150.52 33.7277 150.48 33.3737L150.708 20.4633C150.765 20.1147 150.74 19.7573 150.634 19.4202C150.529 19.0832 150.346 18.776 150.1 18.5237C149.854 18.2714 149.553 18.0811 149.221 17.9684C148.888 17.8556 148.534 17.8235 148.187 17.8747H140.967C140.617 17.8275 140.26 17.8616 139.924 17.9742C139.589 18.0869 139.283 18.2752 139.031 18.5248C138.778 18.7744 138.586 19.0788 138.467 19.4147C138.349 19.7506 138.309 20.1093 138.349 20.4633L138.121 33.3737Z" fill="white"/>
<path d="M251.802 41.713C245.916 41.713 243.022 38.7803 243.119 32.9149C243.217 27.0496 246.214 24.1169 252.111 24.1169H260.779V20.4469C260.836 20.0983 260.811 19.7409 260.705 19.4038C260.6 19.0668 260.417 18.7596 260.171 18.5073C259.926 18.255 259.624 18.0648 259.292 17.952C258.959 17.8392 258.605 17.8071 258.258 17.8583H246.388V14.303L249.331 12.1076H258.616C264.47 12.1076 267.343 15.0785 267.234 21.0204L266.86 41.713H251.705H251.802ZM249.656 33.3737C249.599 33.7223 249.624 34.0797 249.729 34.4167C249.835 34.7538 250.018 35.061 250.263 35.3133C250.509 35.5656 250.81 35.7558 251.143 35.8686C251.475 35.9814 251.829 36.0135 252.177 35.9623H260.518L260.649 29.2613H252.307C251.959 29.209 251.605 29.2377 251.27 29.3453C250.936 29.4529 250.63 29.6365 250.377 29.8818C250.124 30.1272 249.931 30.4278 249.811 30.7606C249.692 31.0933 249.65 31.4492 249.689 31.8008L249.656 33.3737Z" fill="white"/>
<path d="M315.074 41.713L315.204 34.3895H322.473L322.343 41.713H315.074Z" fill="#ED1C24"/>
<path d="M327.107 41.7128L327.644 12.1239H334.148L333.612 41.7128H327.107ZM327.563 6.97939L327.677 0.278473H334.555L334.441 6.97939H327.563Z" fill="#ED1C24"/>
<path d="M338.393 32.8004L338.604 21.0205C338.712 15.0787 341.715 12.1078 347.613 12.1078H357.125L357.337 -0.0161133H363.841L363.093 41.6967H347.043C341.168 41.7076 338.284 38.7422 338.393 32.8004ZM344.897 33.3738C344.84 33.7225 344.865 34.0799 344.97 34.4169C345.076 34.754 345.259 35.0611 345.504 35.3134C345.75 35.5657 346.051 35.756 346.384 35.8688C346.716 35.9816 347.07 36.0136 347.418 35.9624H356.719L357.044 17.9404H347.808C347.457 17.8932 347.101 17.9273 346.765 18.0399C346.429 18.1526 346.124 18.3409 345.871 18.5905C345.619 18.8401 345.426 19.1444 345.308 19.4804C345.19 19.8163 345.149 20.175 345.19 20.529L344.897 33.3738Z" fill="#ED1C24"/>
<path d="M119.064 12.1076H102.949L102.851 17.8583H118.625C118.972 17.8071 119.326 17.8392 119.658 17.952C119.991 18.0648 120.292 18.255 120.538 18.5073C120.783 18.7596 120.966 19.0668 121.072 19.4038C121.177 19.7409 121.202 20.0983 121.145 20.4469L120.934 33.3737C120.974 33.7277 120.933 34.0864 120.815 34.4223C120.697 34.7582 120.504 35.0626 120.252 35.3122C120 35.5618 119.694 35.7501 119.358 35.8628C119.023 35.9754 118.666 36.0094 118.316 35.9623H109.063L109.307 22.3474H102.802L102.25 53.0013H108.754L108.965 41.7294H118.543C124.397 41.7294 127.378 38.7584 127.487 32.8166L127.698 21.0368C127.796 15.084 124.917 12.1076 119.064 12.1076Z" fill="white"/>
<path d="M246.583 12.1076H253.559L254.665 17.8747H246.453L246.583 12.1076Z" fill="white"/>
<path d="M186.872 17.8582H193.929L194.043 12.1075H186.986L187.149 2.80161H180.644L180.108 32.7837C179.999 38.7255 182.894 41.6964 188.791 41.6964H197.068L197.198 35.9622H189.181C188.834 36.0134 188.48 35.9813 188.147 35.8685C187.815 35.7557 187.514 35.5655 187.268 35.3132C187.022 35.0609 186.839 34.7537 186.734 34.4166C186.628 34.0796 186.603 33.7222 186.661 33.3736L186.872 17.8582Z" fill="white"/>
<path d="M229.883 17.8582H236.94L237.054 12.1075H229.883L230.045 2.80161H223.541L223.004 32.7837C222.896 38.7255 225.79 41.6964 231.687 41.6964H239.964L240.095 35.9622H232.078C231.731 36.0134 231.377 35.9813 231.044 35.8685C230.712 35.7557 230.41 35.5655 230.165 35.3132C229.919 35.0609 229.736 34.7537 229.63 34.4166C229.525 34.0796 229.5 33.7222 229.557 33.3736L229.883 17.8582Z" fill="white"/>
<path d="M98.0867 17.8747L98.2168 12.1076H85.8421C79.9447 12.1076 76.9473 15.0021 76.8498 20.791C76.763 25.3784 79.0829 28.109 83.8094 28.9828L90.0537 29.9986C91.4684 30.2608 92.1514 31.3585 92.1189 33.2754C92.1726 33.6401 92.143 34.0124 92.0325 34.3638C91.9219 34.7153 91.7332 35.0368 91.4807 35.3038C91.2283 35.5707 90.9188 35.7762 90.5757 35.9045C90.2326 36.0328 89.865 36.0806 89.5008 36.0442H76.5733V36.1589L76.4432 41.7785H89.6147C95.5445 41.7785 98.5637 38.8676 98.6721 33.046C98.7588 28.3821 96.4552 25.6515 91.7611 24.8541L85.5168 23.8384C85.1662 23.7813 84.8306 23.6538 84.5299 23.4635C84.2292 23.2731 83.9695 23.0238 83.7663 22.7304C83.563 22.437 83.4203 22.1054 83.3467 21.7553C83.2732 21.4053 83.2702 21.0439 83.3379 20.6927C83.2855 20.3225 83.3183 19.9452 83.4336 19.5897C83.5489 19.2343 83.7436 18.9103 84.0029 18.6428C84.2621 18.3752 84.579 18.1712 84.9289 18.0466C85.2788 17.9219 85.6525 17.8799 86.021 17.9238H98.103L98.0867 17.8747Z" fill="white"/>
<path d="M220.5 17.8747L220.63 12.1076H208.255C202.358 12.1076 199.361 15.0021 199.263 20.791C199.176 25.3784 201.496 28.109 206.223 28.9828L212.467 29.9986C213.882 30.2608 214.565 31.3585 214.532 33.2754C214.586 33.6401 214.556 34.0124 214.446 34.3638C214.335 34.7153 214.147 35.0368 213.894 35.3038C213.642 35.5707 213.332 35.7762 212.989 35.9045C212.646 36.0328 212.278 36.0806 211.914 36.0442H198.987V36.1589L198.857 41.7785H211.995C217.925 41.7785 220.944 38.8676 221.053 33.046C221.14 28.3821 218.836 25.6515 214.142 24.8541L207.898 23.8384C207.547 23.7813 207.211 23.6538 206.911 23.4635C206.61 23.2731 206.35 23.0238 206.147 22.7304C205.944 22.437 205.801 22.1054 205.728 21.7553C205.654 21.4053 205.651 21.0439 205.719 20.6927C205.666 20.3225 205.699 19.9452 205.814 19.5897C205.93 19.2343 206.124 18.9103 206.384 18.6428C206.643 18.3752 206.96 18.1712 207.31 18.0466C207.66 17.9219 208.033 17.8799 208.402 17.9238H220.484L220.5 17.8747Z" fill="white"/>
<path d="M170.188 12.1076H169.538C166.009 12.1076 163.57 13.2054 162.123 15.3025C161.942 15.6481 161.811 16.0176 161.733 16.4002L161.277 41.713H167.782L168.172 19.5458C168.253 19.1553 168.454 18.8002 168.746 18.53C169.037 18.2598 169.405 18.0879 169.798 18.0385C170.175 17.9376 170.563 17.8826 170.953 17.8747H178.286L178.416 12.1076H170.204H170.188Z" fill="white"/>
<path d="M279.967 12.1076H279.316C275.788 12.1076 273.348 13.2054 271.901 15.3025C271.72 15.648 271.589 16.0175 271.511 16.4002L271.056 41.713H277.56L277.95 19.5458C278.032 19.1553 278.232 18.8002 278.524 18.53C278.815 18.2598 279.183 18.0879 279.576 18.0385C279.953 17.9376 280.341 17.8826 280.731 17.8747H288.065L288.195 12.1076H279.967Z" fill="white"/>
<path d="M30.0341 12.3205H17.8871C17.8871 12.3205 18.9278 18.6119 26.5055 18.6119L30.0341 12.3205Z" fill="white"/>
<path d="M64.8492 40.2711L64.963 28.0489C64.963 27.5246 64.963 27.2133 64.963 27.2133V25.0506L43.6773 12.3205L25.7901 15.0402L26.782 25.5258L38.7339 29.8511L35.2053 40.2711L19.3508 41.9094L40.8316 54.3282C47.9349 53.3797 54.8129 51.1604 61.1416 47.7748C61.1416 47.7748 64.7841 45.989 64.8492 40.2711Z" fill="#C8161D"/>
<path d="M43.0756 18.0711L43.7098 12.304H31.3352C25.4378 12.304 22.1856 15.1985 21.5785 20.9874C21.0907 25.5748 23.1775 28.3054 27.839 29.1792L34.0019 30.195C35.3841 30.4571 35.9858 31.5548 35.7907 33.4717C35.8057 33.8493 35.741 34.2257 35.6009 34.5762C35.4608 34.9267 35.2485 35.2433 34.978 35.505C34.7075 35.7667 34.385 35.9676 34.0318 36.0944C33.6785 36.2212 33.3025 36.271 32.9287 36.2406H20.0012V36.3552L19.3508 41.9093H32.5222C38.4521 41.9093 41.7043 38.9985 42.2788 33.1768C42.7667 28.5129 40.7015 25.7823 36.0834 24.985L29.9205 23.9692C28.457 23.707 27.8227 22.6585 28.0178 20.8235C28.0071 20.4414 28.0769 20.0613 28.2226 19.7083C28.3683 19.3554 28.5867 19.0376 28.8633 18.7759C29.14 18.5142 29.4686 18.3146 29.8274 18.1903C30.1862 18.066 30.567 18.0198 30.9448 18.0547H43.0269L43.0756 18.0711Z" fill="white"/>
</g>
<defs>
<clipPath id="clip0_1501_2763">
<rect width="363.89" height="55" fill="white"/>
</clipPath>
</defs>
</svg>
