<svg width="20" height="20" viewBox="0 0 20 20" fill="none" xmlns="http://www.w3.org/2000/svg">
<g clip-path="url(#clip0_1501_1847)">
<path d="M13.478 0.621992C12.3947 0.220039 11.2229 0 9.99974 0C8.77653 0 7.60481 0.220039 6.52149 0.621992L5.65192 10L6.52149 19.378C7.60481 19.78 8.77653 20 9.99974 20C11.2229 20 12.3947 19.78 13.478 19.378L14.3476 10L13.478 0.621992Z" fill="#FFDA44"/>
<path d="M20 9.99992C20 5.70031 17.2863 2.03484 13.4783 0.621948V19.378C17.2863 17.965 20 14.2996 20 9.99992Z" fill="#D80027"/>
<path d="M0 9.99992C0 14.2996 2.71375 17.965 6.52176 19.378V0.621948C2.71375 2.03484 0 5.70031 0 9.99992Z" fill="black"/>
</g>
<defs>
<clipPath id="clip0_1501_1847">
<rect width="20" height="20" fill="white"/>
</clipPath>
</defs>
</svg>
