<svg width="25" height="25" viewBox="0 0 25 25" fill="none" xmlns="http://www.w3.org/2000/svg">
<g clip-path="url(#clip0_1417_2352)">
<path d="M0 12.5C0 17.9297 3.48144 22.5635 8.33496 24.2822V0.717773C3.48144 2.43652 0 7.07031 0 12.5Z" fill="black"/>
<path d="M24.9999 12.5C24.9999 7.07031 21.5136 2.43652 16.665 0.717773V24.2871C21.5136 22.5635 24.9999 17.9297 24.9999 12.5Z" fill="#EC2938"/>
<path d="M12.5 0C11.04 0 9.63867 0.253906 8.33496 0.717773V24.2871C9.63867 24.751 11.04 25.0049 12.5 25.0049C13.96 25.0049 15.3613 24.751 16.6651 24.2871V0.717773C15.3613 0.253906 13.96 0 12.5 0Z" fill="#F9DF47"/>
</g>
<defs>
<clipPath id="clip0_1417_2352">
<rect width="25" height="25" fill="white"/>
</clipPath>
</defs>
</svg>
