<svg width="32" height="32" viewBox="0 0 32 32" fill="none" xmlns="http://www.w3.org/2000/svg">
<circle opacity="0.6" cx="16" cy="16" r="16" fill="#ED1C24"/>
<path fill-rule="evenodd" clip-rule="evenodd" d="M21.5261 10.1449C21.5667 10.216 21.6378 10.2667 21.7293 10.2667C24.1674 10.2667 26.1585 12.2556 26.1585 14.691V20.7186C26.1585 23.154 24.1674 25.1429 21.7293 25.1429H10.2702C7.82196 25.1429 5.841 23.154 5.841 20.7186V14.691C5.841 12.2556 7.82196 10.2667 10.2702 10.2667C10.3515 10.2667 10.4327 10.2261 10.4632 10.1449L10.5242 10.0231C10.5592 9.94944 10.5951 9.87373 10.6316 9.79687C10.8915 9.24947 11.179 8.64386 11.3572 8.28793C11.8245 7.37466 12.6169 6.86729 13.6023 6.85714H18.387C19.3724 6.86729 20.175 7.37466 20.6423 8.28793C20.8023 8.60756 21.046 9.12239 21.2809 9.61862C21.3294 9.72106 21.3776 9.8227 21.4245 9.92167L21.5261 10.1449ZM20.7846 14.0415C20.7846 14.5489 21.191 14.9548 21.6989 14.9548C22.2068 14.9548 22.6233 14.5489 22.6233 14.0415C22.6233 13.5341 22.2068 13.1181 21.6989 13.1181C21.191 13.1181 20.7846 13.5341 20.7846 14.0415ZM14.242 15.6144C14.7195 15.1375 15.3391 14.8838 15.9995 14.8838C16.6598 14.8838 17.2795 15.1375 17.7468 15.6043C18.2141 16.071 18.468 16.69 18.468 17.3496C18.4579 18.7094 17.3607 19.8154 15.9995 19.8154C15.3391 19.8154 14.7195 19.5618 14.2522 19.095C13.7849 18.6282 13.5309 18.0092 13.5309 17.3496V17.3395C13.5207 16.7002 13.7747 16.0812 14.242 15.6144ZM18.8138 20.1706C18.0925 20.8911 17.0969 21.3376 15.9998 21.3376C14.9331 21.3376 13.9376 20.9215 13.1757 20.1706C12.4239 19.4096 12.0074 18.4151 12.0074 17.3496C11.9972 16.2943 12.4138 15.2998 13.1655 14.5388C13.9274 13.7777 14.9331 13.3617 15.9998 13.3617C17.0665 13.3617 18.0722 13.7777 18.8239 14.5286C19.5757 15.2897 19.9922 16.2943 19.9922 17.3496C19.982 18.4557 19.535 19.4501 18.8138 20.1706Z" fill="white"/>
</svg>
