<svg width="42" height="42" viewBox="0 0 42 42" fill="none" xmlns="http://www.w3.org/2000/svg">
<circle opacity="0.6" cx="21" cy="21" r="21" fill="#ED1C24"/>
<path fill-rule="evenodd" clip-rule="evenodd" d="M28.2532 13.3152C28.3065 13.4084 28.3998 13.475 28.5198 13.475C31.7198 13.475 34.3332 16.0855 34.3332 19.2819V27.1931C34.3332 30.3896 31.7198 33 28.5198 33H13.4798C10.2665 33 7.6665 30.3896 7.6665 27.1931V19.2819C7.6665 16.0855 10.2665 13.475 13.4798 13.475C13.5865 13.475 13.6932 13.4218 13.7332 13.3152L13.8132 13.1554C13.8591 13.0586 13.9063 12.9593 13.9542 12.8584C14.2953 12.1399 14.6727 11.3451 14.9065 10.8779C15.5198 9.67925 16.5598 9.01332 17.8532 9H24.1332C25.4265 9.01332 26.4798 9.67925 27.0932 10.8779C27.3032 11.2974 27.6231 11.9732 27.9315 12.6246C27.9951 12.759 28.0583 12.8923 28.1198 13.0222L28.2532 13.3152ZM27.28 18.4295C27.28 19.0954 27.8133 19.6281 28.4799 19.6281C29.1466 19.6281 29.6933 19.0954 29.6933 18.4295C29.6933 17.7635 29.1466 17.2175 28.4799 17.2175C27.8133 17.2175 27.28 17.7635 27.28 18.4295ZM18.6928 20.4939C19.3195 19.8679 20.1328 19.535 20.9995 19.535C21.8662 19.535 22.6795 19.8679 23.2929 20.4806C23.9062 21.0932 24.2395 21.9057 24.2395 22.7714C24.2262 24.556 22.7862 26.0078 20.9995 26.0078C20.1328 26.0078 19.3195 25.6748 18.7062 25.0621C18.0928 24.4495 17.7595 23.6371 17.7595 22.7714V22.758C17.7462 21.919 18.0795 21.1065 18.6928 20.4939ZM24.6934 26.4739C23.7467 27.4195 22.44 28.0055 21 28.0055C19.6 28.0055 18.2934 27.4595 17.2934 26.4739C16.3067 25.475 15.76 24.1698 15.76 22.7714C15.7467 21.3862 16.2934 20.081 17.28 19.0821C18.28 18.0832 19.6 17.5372 21 17.5372C22.4 17.5372 23.72 18.0832 24.7067 19.0688C25.6934 20.0677 26.24 21.3862 26.24 22.7714C26.2267 24.2231 25.64 25.5283 24.6934 26.4739Z" fill="white"/>
</svg>
