<svg width="20" height="20" viewBox="0 0 20 20" fill="none" xmlns="http://www.w3.org/2000/svg">
<g clip-path="url(#clip0_1501_1823)">
<path d="M10 20C15.5228 20 20 15.5228 20 10C20 4.47715 15.5228 0 10 0C4.47715 0 0 4.47715 0 10C0 15.5228 4.47715 20 10 20Z" fill="#F0F0F0"/>
<path d="M7.82645 8.69566H19.9157C19.2765 3.78914 15.0811 0 10.0003 0C9.25364 0 8.52642 0.0825391 7.82642 0.237695V8.69566H7.82645Z" fill="#D80027"/>
<path d="M5.21739 8.69567V1.21594C2.47157 2.71415 0.505867 5.46223 0.0846558 8.69571H5.21739V8.69567Z" fill="#D80027"/>
<path d="M5.21735 11.3042H0.0846558C0.505867 14.5377 2.47157 17.2858 5.21739 18.7839L5.21735 11.3042Z" fill="#D80027"/>
<path d="M7.82642 11.3042V19.7622C8.52642 19.9173 9.25364 19.9999 10.0003 19.9999C15.0811 19.9999 19.2765 16.2107 19.9157 11.3042H7.82642V11.3042Z" fill="#D80027"/>
</g>
<defs>
<clipPath id="clip0_1501_1823">
<rect width="20" height="20" fill="white"/>
</clipPath>
</defs>
</svg>
