<svg width="20" height="20" viewBox="0 0 20 20" fill="none" xmlns="http://www.w3.org/2000/svg">
<g clip-path="url(#clip0_1501_1837)">
<path d="M10 20C15.5228 20 20 15.5228 20 10C20 4.47715 15.5228 0 10 0C4.47715 0 0 4.47715 0 10C0 15.5228 4.47715 20 10 20Z" fill="#F0F0F0"/>
<path d="M19.9154 8.6971H7.82613H7.82609V0.239136C6.90195 0.444058 6.02582 0.776206 5.21738 1.21734V8.69703V8.69707H0.0846484C0.0289844 9.12406 0 9.55937 0 10.0014C0 10.4435 0.0289844 10.8788 0.0846484 11.3058H5.21734H5.21738V18.7855C6.02582 19.2266 6.90195 19.5588 7.82609 19.7637V11.3059V11.3058H19.9154C19.9709 10.8788 20 10.4435 20 10.0014C20 9.55937 19.9709 9.12406 19.9154 8.6971Z" fill="#0052B4"/>
</g>
<defs>
<clipPath id="clip0_1501_1837">
<rect width="20" height="20" fill="white"/>
</clipPath>
</defs>
</svg>
