<svg width="25" height="25" viewBox="0 0 25 25" fill="none" xmlns="http://www.w3.org/2000/svg">
<g clip-path="url(#clip0_1417_2342)">
<path d="M24.9997 12.5003C24.9997 6.98247 21.4233 2.30302 16.4629 0.645508V24.3546C21.4233 22.6971 24.9997 18.0179 24.9997 12.5003Z" fill="url(#paint0_linear_1417_2342)"/>
<path d="M0 12.5003C0 18.0179 3.57666 22.6971 8.5371 24.3546V0.645508C3.57666 2.30302 0 6.98247 0 12.5003Z" fill="url(#paint1_linear_1417_2342)"/>
<path d="M12.5 25C13.8859 25 15.2171 24.7707 16.4632 24.3542V0.645462C15.2174 0.229269 13.8859 0 12.5 0C11.1144 0 9.78266 0.229269 8.53711 0.645462V24.3545C9.78266 24.7707 11.1144 25 12.5 25Z" fill="#F9F9F9"/>
</g>
<defs>
<linearGradient id="paint0_linear_1417_2342" x1="20.7315" y1="0.645325" x2="20.7315" y2="24.3543" gradientUnits="userSpaceOnUse">
<stop stop-color="#ED2224"/>
<stop offset="1" stop-color="#ED2224"/>
</linearGradient>
<linearGradient id="paint1_linear_1417_2342" x1="8.53697" y1="12.5" x2="0" y2="12.5" gradientUnits="userSpaceOnUse">
<stop stop-color="#1A4697"/>
<stop offset="1" stop-color="#3150A3"/>
</linearGradient>
<clipPath id="clip0_1417_2342">
<rect width="24.9994" height="25" fill="white"/>
</clipPath>
</defs>
</svg>
