<svg width="25" height="25" viewBox="0 0 25 25" fill="none" xmlns="http://www.w3.org/2000/svg">
<g clip-path="url(#clip0_1417_2445)">
<path d="M24.9218 13.8867C24.8144 14.8486 24.5995 15.7812 24.2821 16.665H0.717682C0.400299 15.7812 0.185455 14.8535 0.0780334 13.8867H24.9218Z" fill="white"/>
<path d="M24.2823 16.665C23.9356 17.6563 23.462 18.5889 22.8858 19.4434H2.11432C1.53815 18.5889 1.06451 17.6563 0.717834 16.665H24.2823Z" fill="#115EAD"/>
<path d="M22.8906 19.4434C22.1874 20.4932 21.3281 21.4307 20.3466 22.2217H4.65326C3.67181 21.4307 2.81732 20.4932 2.1142 19.4434H22.8906Z" fill="white"/>
<path d="M20.3467 22.2217C18.1982 23.9599 15.4687 25 12.5 25C9.52634 25 6.79684 23.9599 4.65329 22.2217H20.3467Z" fill="#115EAD"/>
<path d="M20.3467 2.77832H4.65329C5.37595 2.19238 6.16208 1.68945 7.00192 1.2793C8.66208 0.458984 10.5273 0 12.5 0H12.5537C15.5029 0.0146484 18.2129 1.0498 20.3467 2.77832Z" fill="#115EAD"/>
<path d="M25 12.5C25 12.9687 24.9756 13.4326 24.9219 13.8867H0.078125C0.0244141 13.4326 0 12.9687 0 12.5C0 12.0312 0.0244141 11.5674 0.078125 11.1133H24.9268C24.9756 11.5674 25 12.0312 25 12.5Z" fill="#115EAD"/>
<path d="M22.8906 5.55664H2.1142C2.7099 4.66309 3.42279 3.85254 4.22357 3.14453C4.36517 3.01758 4.50678 2.89551 4.65326 2.77832H20.3466C21.3281 3.56934 22.1874 4.50684 22.8906 5.55664Z" fill="white"/>
<path d="M24.287 8.33496H0.712799C1.06436 7.34863 1.53311 6.41602 2.11417 5.56152V5.55664H22.8905C23.4667 6.41113 23.9355 7.34375 24.287 8.33496Z" fill="#115EAD"/>
<path d="M24.9218 11.1133H0.0780334C0.185455 10.1514 0.400299 9.22363 0.712799 8.33496H24.287C24.5995 9.21875 24.8192 10.1465 24.9218 11.1133Z" fill="white"/>
<path d="M12.5586 0V13.8916H0.078125C0.0244141 13.4326 0 12.9688 0 12.5C0 12.0312 0.0244141 11.5674 0.078125 11.1133C0.185547 10.1514 0.400391 9.22363 0.712891 8.33496C1.06445 7.34863 1.5332 6.41602 2.11426 5.56152V5.55664C2.70996 4.66309 3.42285 3.85254 4.22363 3.14453C4.36523 3.01758 4.50684 2.89551 4.65332 2.77832C5.37598 2.19238 6.16211 1.68945 7.00195 1.2793C8.66211 0.458984 10.5273 0 12.5 0H12.5586Z" fill="#115EAD"/>
<path d="M12.5585 5.55664V8.33008H0.712799C1.06436 7.34375 1.53311 6.41113 2.11417 5.55664H12.5585Z" fill="white"/>
<path d="M7.00195 1.27441V13.8867H4.22363V3.13965C4.36523 3.0127 4.50684 2.89062 4.65332 2.77344C5.37598 2.19238 6.16211 1.68945 7.00195 1.27441Z" fill="white"/>
</g>
<defs>
<clipPath id="clip0_1417_2445">
<rect width="25" height="25" fill="white"/>
</clipPath>
</defs>
</svg>
