<svg width="32" height="32" viewBox="0 0 32 32" fill="none" xmlns="http://www.w3.org/2000/svg">
<circle opacity="0.6" cx="16" cy="16" r="16" fill="#ED1C24"/>
<path fill-rule="evenodd" clip-rule="evenodd" d="M5.84119 16.0059C5.84119 10.3987 10.4008 5.84125 15.9999 5.84125C21.599 5.84125 26.1586 10.3987 26.1586 16.0059C26.1586 21.6012 21.599 26.1587 15.9999 26.1587C10.4008 26.1587 5.84119 21.6012 5.84119 16.0059ZM19.726 17.034C19.8339 16.9262 19.9712 16.7596 20.0006 16.7204C20.1575 16.5146 20.2359 16.2597 20.2359 16.0059C20.2359 15.7207 20.1477 15.4561 19.981 15.2404C19.9673 15.2268 19.9405 15.1977 19.9057 15.1597C19.8405 15.0887 19.7468 14.9868 19.6574 14.8974C18.8533 14.0349 16.7549 12.6236 15.6566 12.1923C15.4899 12.1247 15.0683 11.9767 14.8428 11.9669C14.627 11.9669 14.4211 12.0159 14.225 12.1139C13.9799 12.2511 13.7837 12.4667 13.6759 12.7216C13.6072 12.898 13.4994 13.4272 13.4994 13.437C13.3915 14.0153 13.3327 14.9562 13.3327 15.9951C13.3327 16.986 13.3915 17.8867 13.4798 18.4748C13.4822 18.4772 13.4906 18.5192 13.5037 18.5846C13.5436 18.7832 13.6266 19.197 13.7151 19.3666C13.9308 19.7783 14.3525 20.0331 14.8035 20.0331H14.8428C15.1369 20.0233 15.7547 19.7685 15.7547 19.7587C16.7941 19.3274 18.8435 17.9847 19.6672 17.0928L19.726 17.034Z" fill="white"/>
</svg>
