<svg width="42" height="42" viewBox="0 0 42 42" fill="none" xmlns="http://www.w3.org/2000/svg">
<circle opacity="0.6" cx="21" cy="21" r="21" fill="#ED1C24"/>
<path fill-rule="evenodd" clip-rule="evenodd" d="M7.66667 21.0078C7.66667 13.6484 13.6512 7.66675 21 7.66675C28.3488 7.66675 34.3333 13.6484 34.3333 21.0078C34.3333 28.3517 28.3488 34.3334 21 34.3334C13.6512 34.3334 7.66667 28.3517 7.66667 21.0078ZM25.8906 22.3573C26.0322 22.2158 26.2124 21.9971 26.251 21.9456C26.4569 21.6755 26.5598 21.341 26.5598 21.0078C26.5598 20.6335 26.444 20.2862 26.2252 20.0032C26.2073 19.9853 26.1722 19.947 26.1264 19.8972C26.0408 19.8041 25.9179 19.6703 25.8005 19.5529C24.7452 18.4209 21.991 16.5685 20.5496 16.0025C20.3308 15.9138 19.7774 15.7195 19.4813 15.7067C19.1982 15.7067 18.9279 15.771 18.6705 15.8996C18.3488 16.0797 18.0914 16.3627 17.9498 16.6972C17.8597 16.9287 17.7181 17.6234 17.7181 17.6362C17.5766 18.3952 17.4994 19.6301 17.4994 20.9937C17.4994 22.2942 17.5766 23.4764 17.6924 24.2482C17.6956 24.2514 17.7067 24.3066 17.7239 24.3924C17.7761 24.6531 17.8851 25.1962 18.0013 25.4188C18.2844 25.9591 18.8378 26.2936 19.4299 26.2936H19.4813C19.8674 26.2807 20.6783 25.9463 20.6783 25.9334C22.0425 25.3674 24.7323 23.605 25.8134 22.4344L25.8906 22.3573Z" fill="white"/>
</svg>
