<svg width="60" height="60" viewBox="0 0 60 60" fill="none" xmlns="http://www.w3.org/2000/svg">
<circle opacity="0.6" cx="30" cy="30" r="30" fill="#ED1C24"/>
<path fill-rule="evenodd" clip-rule="evenodd" d="M10.9523 30.011C10.9523 19.4976 19.5017 10.9524 30 10.9524C40.4982 10.9524 49.0476 19.4976 49.0476 30.011C49.0476 40.5024 40.4982 49.0476 30 49.0476C19.5017 49.0476 10.9523 40.5024 10.9523 30.011ZM36.9865 31.9388C37.1887 31.7367 37.4461 31.4243 37.5013 31.3508C37.7954 30.9649 37.9425 30.4871 37.9425 30.0111C37.9425 29.4763 37.777 28.9802 37.4645 28.5759C37.4389 28.5503 37.3887 28.4957 37.3234 28.4245C37.2011 28.2914 37.0255 28.1003 36.8578 27.9327C35.3501 26.3155 31.4156 23.6692 29.3564 22.8607C29.0438 22.7339 28.2532 22.4564 27.8304 22.438C27.4259 22.438 27.0398 22.5299 26.6721 22.7136C26.2124 22.9709 25.8447 23.3752 25.6425 23.853C25.5138 24.1838 25.3115 25.1761 25.3115 25.1945C25.1093 26.2788 24.999 28.0429 24.999 29.9909C24.999 31.8488 25.1093 33.5376 25.2747 34.6402C25.2793 34.6448 25.2951 34.7236 25.3197 34.8461C25.3944 35.2186 25.55 35.9945 25.716 36.3125C26.1205 37.0843 26.9111 37.5621 27.7568 37.5621H27.8304C28.3819 37.5438 29.5402 37.066 29.5402 37.0476C31.4891 36.239 35.3317 33.7214 36.8761 32.0491L36.9865 31.9388Z" fill="white"/>
</svg>
