<svg width="42" height="42" viewBox="0 0 42 42" fill="none" xmlns="http://www.w3.org/2000/svg">
<rect width="42" height="42" rx="2" fill="white"/>
<path d="M21.0005 10.67C24.3648 10.67 24.7633 10.6828 26.0919 10.7435C27.3204 10.7995 27.9876 11.0047 28.4316 11.1773C29.0197 11.4059 29.4394 11.6789 29.8803 12.1198C30.3213 12.5607 30.5943 12.9804 30.8229 13.5686C30.9954 14.0126 31.2007 14.6797 31.2567 15.9082C31.3173 17.2368 31.3302 17.6354 31.3302 20.9997C31.3302 24.364 31.3173 24.7625 31.2567 26.0911C31.2007 27.3196 30.9954 27.9868 30.8229 28.4308C30.5943 29.0189 30.3213 29.4386 29.8804 29.8795C29.4394 30.3205 29.0197 30.5935 28.4316 30.8221C27.9876 30.9946 27.3204 31.1999 26.0919 31.2559C24.7635 31.3165 24.365 31.3294 21.0005 31.3294C17.6359 31.3294 17.2374 31.3165 15.909 31.2559C14.6805 31.1999 14.0133 30.9946 13.5693 30.8221C12.9812 30.5935 12.5615 30.3205 12.1206 29.8795C11.6797 29.4386 11.4066 29.0189 11.178 28.4308C11.0055 27.9868 10.8002 27.3196 10.7442 26.0911C10.6836 24.7625 10.6707 24.364 10.6707 20.9997C10.6707 17.6354 10.6836 17.2368 10.7442 15.9082C10.8002 14.6797 11.0055 14.0126 11.178 13.5686C11.4066 12.9804 11.6796 12.5607 12.1206 12.1198C12.5615 11.6789 12.9812 11.4059 13.5693 11.1773C14.0133 11.0047 14.6805 10.7995 15.909 10.7435C17.2376 10.6828 17.6361 10.67 21.0005 10.67ZM21.0005 8.39972C17.5785 8.39972 17.1494 8.41422 15.8055 8.47554C14.4644 8.53671 13.5484 8.74973 12.747 9.06118C11.9184 9.38318 11.2157 9.81401 10.5152 10.5145C9.81475 11.215 9.38391 11.9177 9.06196 12.7462C8.75046 13.5477 8.53744 14.4636 8.47628 15.8047C8.41496 17.1487 8.40045 17.5777 8.40045 20.9997C8.40045 24.4216 8.41496 24.8507 8.47628 26.1946C8.53744 27.5357 8.75046 28.4517 9.06196 29.2531C9.38391 30.0817 9.81475 30.7844 10.5152 31.4849C11.2157 32.1853 11.9184 32.6162 12.747 32.9381C13.5484 33.2496 14.4644 33.4626 15.8055 33.5238C17.1494 33.5851 17.5785 33.5996 21.0005 33.5996C24.4224 33.5996 24.8515 33.5851 26.1954 33.5238C27.5365 33.4626 28.4525 33.2496 29.2539 32.9381C30.0825 32.6162 30.7852 32.1853 31.4857 31.4849C32.1862 30.7844 32.617 30.0817 32.939 29.2531C33.2504 28.4517 33.4635 27.5357 33.5246 26.1946C33.5859 24.8507 33.6004 24.4216 33.6004 20.9997C33.6004 17.5777 33.5859 17.1487 33.5246 15.8047C33.4635 14.4636 33.2504 13.5477 32.939 12.7462C32.617 11.9177 32.1862 11.215 31.4857 10.5145C30.7852 9.81401 30.0825 9.38318 29.2539 9.06118C28.4525 8.74973 27.5365 8.53671 26.1954 8.47554C24.8515 8.41422 24.4224 8.39972 21.0005 8.39972Z" fill="#070D59"/>
<path d="M21.0062 14.5359C17.4327 14.5359 14.5359 17.4327 14.5359 21.0061C14.5359 24.5795 17.4327 27.4764 21.0062 27.4764C24.5796 27.4764 27.4764 24.5795 27.4764 21.0061C27.4764 17.4327 24.5796 14.5359 21.0062 14.5359ZM21.0062 25.2061C18.6865 25.2061 16.8062 23.3257 16.8062 21.0061C16.8062 18.6865 18.6865 16.8061 21.0062 16.8061C23.3258 16.8061 25.2062 18.6865 25.2062 21.0061C25.2062 23.3257 23.3258 25.2061 21.0062 25.2061Z" fill="#070D59"/>
<path d="M29.2437 14.2757C29.2437 15.1107 28.5667 15.7877 27.7317 15.7877C26.8967 15.7877 26.2197 15.1107 26.2197 14.2757C26.2197 13.4407 26.8967 12.7637 27.7317 12.7637C28.5667 12.7637 29.2437 13.4407 29.2437 14.2757Z" fill="#070D59"/>
</svg>
