<svg width="29" height="29" viewBox="0 0 29 29" fill="none" xmlns="http://www.w3.org/2000/svg">
<rect width="29" height="29" rx="2" fill="#F9F9F9"/>
<path d="M14.5003 7.36761C16.8233 7.36761 17.0985 7.37648 18.0158 7.41834C18.8641 7.45702 19.3247 7.59875 19.6313 7.71789C20.0374 7.87572 20.3272 8.06424 20.6316 8.36866C20.9361 8.67312 21.1246 8.96293 21.2824 9.36903C21.4016 9.67559 21.5433 10.1362 21.582 10.9845C21.6239 11.9019 21.6327 12.177 21.6327 14.5C21.6327 16.823 21.6239 17.0982 21.582 18.0156C21.5433 18.8638 21.4016 19.3244 21.2824 19.631C21.1246 20.0371 20.9361 20.3269 20.6317 20.6313C20.3272 20.9358 20.0374 21.1243 19.6313 21.2821C19.3247 21.4013 18.8641 21.543 18.0158 21.5817C17.0986 21.6236 16.8235 21.6324 14.5003 21.6324C12.1771 21.6324 11.902 21.6236 10.9847 21.5817C10.1365 21.543 9.67585 21.4013 9.36928 21.2821C8.96319 21.1243 8.67337 20.9358 8.36895 20.6313C8.06453 20.3269 7.87597 20.0371 7.71814 19.631C7.599 19.3244 7.45727 18.8638 7.41859 18.0156C7.37673 17.0982 7.36786 16.823 7.36786 14.5C7.36786 12.177 7.37673 11.9019 7.41859 10.9845C7.45727 10.1362 7.599 9.67559 7.71814 9.36903C7.87597 8.96293 8.06449 8.67312 8.36895 8.3687C8.67337 8.06424 8.96319 7.87572 9.36928 7.71789C9.67585 7.59875 10.1365 7.45702 10.9847 7.41834C11.9021 7.37648 12.1773 7.36761 14.5003 7.36761ZM14.5003 5.80005C12.1375 5.80005 11.8412 5.81006 10.9133 5.8524C9.98728 5.89464 9.35485 6.04172 8.80146 6.25677C8.22936 6.4791 7.74418 6.77658 7.26049 7.26024C6.77683 7.74393 6.47935 8.22911 6.25705 8.80121C6.04197 9.35459 5.89488 9.98702 5.85265 10.913C5.81031 11.841 5.80029 12.1372 5.80029 14.5C5.80029 16.8628 5.81031 17.1591 5.85265 18.087C5.89488 19.013 6.04197 19.6454 6.25705 20.1988C6.47935 20.7709 6.77683 21.2561 7.26049 21.7398C7.74418 22.2235 8.22936 22.5209 8.80146 22.7432C9.35485 22.9583 9.98728 23.1054 10.9133 23.1476C11.8412 23.19 12.1375 23.2 14.5003 23.2C16.8631 23.2 17.1593 23.19 18.0873 23.1476C19.0133 23.1054 19.6457 22.9583 20.1991 22.7432C20.7712 22.5209 21.2564 22.2235 21.7401 21.7398C22.2238 21.2561 22.5212 20.7709 22.7436 20.1988C22.9586 19.6454 23.1057 19.013 23.1479 18.087C23.1903 17.1591 23.2003 16.8628 23.2003 14.5C23.2003 12.1372 23.1903 11.841 23.1479 10.913C23.1057 9.98702 22.9586 9.35459 22.7436 8.80121C22.5212 8.22911 22.2238 7.74393 21.7401 7.26024C21.2564 6.77658 20.7712 6.4791 20.1991 6.25677C19.6457 6.04172 19.0133 5.89464 18.0873 5.8524C17.1593 5.81006 16.8631 5.80005 14.5003 5.80005Z" fill="#070D59"/>
<path d="M14.5042 10.0366C12.0368 10.0366 10.0366 12.0368 10.0366 14.5042C10.0366 16.9715 12.0368 18.9717 14.5042 18.9717C16.9715 18.9717 18.9717 16.9715 18.9717 14.5042C18.9717 12.0368 16.9715 10.0366 14.5042 10.0366ZM14.5042 17.4042C12.9025 17.4042 11.6042 16.1058 11.6042 14.5042C11.6042 12.9025 12.9025 11.6042 14.5042 11.6042C16.1058 11.6042 17.4042 12.9025 17.4042 14.5042C17.4042 16.1058 16.1058 17.4042 14.5042 17.4042Z" fill="#070D59"/>
<path d="M20.1921 9.85725C20.1921 10.4338 19.7247 10.9012 19.1481 10.9012C18.5716 10.9012 18.1041 10.4338 18.1041 9.85725C18.1041 9.28066 18.5716 8.81323 19.1481 8.81323C19.7247 8.81323 20.1921 9.28066 20.1921 9.85725Z" fill="#070D59"/>
</svg>
