<svg width="20" height="20" viewBox="0 0 20 20" fill="none" xmlns="http://www.w3.org/2000/svg">
<g clip-path="url(#clip0_1501_1782)">
<path d="M10 20C15.5228 20 20 15.5228 20 10C20 4.47715 15.5228 0 10 0C4.47715 0 0 4.47715 0 10C0 15.5228 4.47715 20 10 20Z" fill="#F0F0F0"/>
<path d="M20 9.9999C20 5.70025 17.2863 2.03482 13.4783 0.621887V19.3779C17.2863 17.965 20 14.2995 20 9.9999Z" fill="#D80027"/>
<path d="M0 9.9999C0 14.2995 2.71375 17.965 6.52176 19.3779V0.621887C2.71375 2.03482 0 5.70025 0 9.9999Z" fill="#6DA544"/>
</g>
<defs>
<clipPath id="clip0_1501_1782">
<rect width="20" height="20" fill="white"/>
</clipPath>
</defs>
</svg>
