<svg width="25" height="25" viewBox="0 0 25 25" fill="none" xmlns="http://www.w3.org/2000/svg">
<g clip-path="url(#clip0_1417_2472)">
<path d="M25.0001 12.5C25.0001 12.9639 24.9757 13.418 24.922 13.8672C24.8683 14.3652 24.7852 14.8535 24.6729 15.332C23.3888 20.8643 18.4181 25 12.5001 25H11.8702V24.9854C11.3722 24.9609 10.8839 24.9072 10.4054 24.8242C9.45322 24.6631 8.53525 24.3945 7.66611 24.0283C7.16318 23.8135 6.67001 23.5693 6.20126 23.291C3.28134 21.582 1.11337 18.7207 0.322357 15.332C0.214935 14.8535 0.127045 14.3652 0.0733337 13.8672C0.0245056 13.4131 -0.00479126 12.959 -0.00479126 12.5C-0.00479126 12.041 0.0196228 11.582 0.0733337 11.1328C0.127045 10.6348 0.210052 10.1465 0.322357 9.66797C1.10849 6.2793 3.28134 3.41797 6.20126 1.70898C6.67001 1.43066 7.16318 1.18652 7.66611 0.97168C8.53525 0.605469 9.45322 0.336914 10.4054 0.175781C10.8839 0.0927734 11.3722 0.0390625 11.8702 0.0146484V0H12.5001C18.4181 0 23.3888 4.13086 24.6778 9.66797C24.7852 10.1465 24.8731 10.6348 24.9268 11.1328C24.9757 11.582 25.0001 12.0361 25.0001 12.5Z" fill="#EE2B2C"/>
<path d="M25.0001 12.5C25.0001 12.9639 24.9757 13.418 24.922 13.8672C24.8683 14.3652 24.7852 14.8535 24.6729 15.332H11.8702V24.9805C11.3722 24.9561 10.8839 24.9023 10.4054 24.8193C9.45322 24.6582 8.53525 24.3896 7.66611 24.0234C7.16318 23.8086 6.67001 23.5645 6.20126 23.2861V15.332H0.322357C0.214935 14.8535 0.127045 14.3652 0.0733337 13.8672C0.0245056 13.4131 -0.00479126 12.959 -0.00479126 12.5C-0.00479126 12.041 0.0196228 11.582 0.0733337 11.1328C0.127045 10.6348 0.210052 10.1465 0.322357 9.66797H6.20126V1.70898C6.67001 1.43066 7.16318 1.18652 7.66611 0.97168C8.53525 0.605469 9.45322 0.336914 10.4054 0.175781C10.8839 0.0927734 11.3722 0.0390625 11.8702 0.0146484V9.66797H24.6778C24.7852 10.1465 24.8731 10.6348 24.9268 11.1328C24.9757 11.582 25.0001 12.0361 25.0001 12.5Z" fill="white"/>
<path d="M25 12.5C25 12.9639 24.9756 13.418 24.9219 13.8672H10.4053V24.8193C9.45312 24.6582 8.53516 24.3896 7.66602 24.0234V13.8672H0.078125C0.0292969 13.4131 0 12.959 0 12.5C0 12.041 0.0244141 11.582 0.078125 11.1328H7.66602V0.97168C8.53516 0.605469 9.45312 0.336914 10.4053 0.175781V11.1328H24.9219C24.9756 11.582 25 12.0361 25 12.5Z" fill="#032767"/>
</g>
<defs>
<clipPath id="clip0_1417_2472">
<rect width="25" height="25" fill="white"/>
</clipPath>
</defs>
</svg>
