<svg width="42" height="42" viewBox="0 0 42 42" fill="none" xmlns="http://www.w3.org/2000/svg">
<rect width="42" height="42" rx="2" fill="white"/>
<path fill-rule="evenodd" clip-rule="evenodd" d="M23.75 10.2498C24.9926 10.2498 26 11.2572 26 12.4998C26 14.1281 27.1587 15.4943 28.6982 15.8072C29.9159 16.0547 30.7024 17.2425 30.4549 18.4603C30.2074 19.678 29.0196 20.4646 27.8018 20.2171C27.1706 20.0887 26.5666 19.885 26 19.6157V25.9998C26 29.7277 22.9779 32.7498 19.25 32.7498C15.522 32.7498 12.5 29.7277 12.5 25.9998C12.5 22.8515 14.6533 20.2118 17.5641 19.4626C18.7676 19.1529 19.9943 19.8773 20.304 21.0808C20.6137 22.2842 19.8892 23.5109 18.6858 23.8206C17.7149 24.0704 17 24.9545 17 25.9998C17 27.2425 18.0073 28.2498 19.25 28.2498C20.4926 28.2498 21.5 27.2425 21.5 25.9998V12.4998C21.5 11.2572 22.5073 10.2498 23.75 10.2498Z" fill="#070D59"/>
</svg>
