<svg width="29" height="29" viewBox="0 0 29 29" fill="none" xmlns="http://www.w3.org/2000/svg">
<path fill-rule="evenodd" clip-rule="evenodd" d="M16.6666 6.66675C17.5871 6.66675 18.3333 7.41294 18.3333 8.33341C18.3333 9.53952 19.1916 10.5516 20.332 10.7833C21.234 10.9667 21.8166 11.8465 21.6332 12.7486C21.4499 13.6506 20.5701 14.2332 19.668 14.0499C19.2005 13.9548 18.7531 13.8039 18.3333 13.6044V18.3334C18.3333 21.0948 16.0947 23.3334 13.3333 23.3334C10.5719 23.3334 8.33331 21.0948 8.33331 18.3334C8.33331 16.0013 9.92837 14.046 12.0845 13.491C12.976 13.2616 13.8846 13.7982 14.1141 14.6897C14.3435 15.5811 13.8068 16.4897 12.9154 16.7192C12.1962 16.9042 11.6666 17.5591 11.6666 18.3334C11.6666 19.2539 12.4128 20.0001 13.3333 20.0001C14.2538 20.0001 15 19.2539 15 18.3334V8.33341C15 7.41294 15.7461 6.66675 16.6666 6.66675Z" fill="#070D59"/>
</svg>
