<svg width="20" height="20" viewBox="0 0 20 20" fill="none" xmlns="http://www.w3.org/2000/svg">
<g clip-path="url(#clip0_1501_1770)">
<path d="M10 20C15.5228 20 20 15.5228 20 10C20 4.47715 15.5228 0 10 0C4.47715 0 0 4.47715 0 10C0 15.5228 4.47715 20 10 20Z" fill="#D80027"/>
<path d="M9.59006 8.17133L10.4106 9.30199L11.7394 8.87113L10.9176 10.0008L11.738 11.1314L10.4096 10.6989L9.58788 11.8286L9.58874 10.4317L8.26038 9.99922L9.5892 9.56836L9.59006 8.17133Z" fill="#F0F0F0"/>
<path d="M7.35115 12.826C5.79036 12.826 4.52505 11.5607 4.52505 9.99995C4.52505 8.43917 5.79036 7.17385 7.35115 7.17385C7.83779 7.17385 8.29568 7.29694 8.69544 7.51354C8.06829 6.90018 7.2106 6.52167 6.26419 6.52167C4.34318 6.52167 2.78595 8.07893 2.78595 9.99991C2.78595 11.9209 4.34322 13.4782 6.26419 13.4782C7.21068 13.4782 8.06833 13.0996 8.69544 12.4863C8.29568 12.703 7.83779 12.826 7.35115 12.826Z" fill="#F0F0F0"/>
</g>
<defs>
<clipPath id="clip0_1501_1770">
<rect width="20" height="20" fill="white"/>
</clipPath>
</defs>
</svg>
