<svg width="29" height="29" viewBox="0 0 29 29" fill="none" xmlns="http://www.w3.org/2000/svg">
<rect width="29" height="29" rx="2" fill="#F9F9F9"/>
<path fill-rule="evenodd" clip-rule="evenodd" d="M23.1996 8.92377C22.5599 9.20795 21.8714 9.39933 21.1494 9.48575C21.8865 9.04382 22.4526 8.34439 22.7188 7.51098C22.0298 7.92043 21.2648 8.2168 20.4523 8.37744C19.801 7.68381 18.8725 7.25 17.8465 7.25C15.8752 7.25 14.2769 8.84837 14.2769 10.8197C14.2769 11.0992 14.3088 11.3718 14.3696 11.6333C11.4026 11.4849 8.77244 10.0634 7.01168 7.90362C6.7043 8.4308 6.52857 9.04382 6.52857 9.69802C6.52857 10.9362 7.15783 12.0289 8.11651 12.6692C7.53074 12.6506 6.98094 12.49 6.49899 12.2226V12.2672C6.49899 13.9973 7.73025 15.4396 9.36226 15.7685C9.063 15.8497 8.7475 15.8937 8.42215 15.8937C8.1919 15.8937 7.96804 15.8711 7.74997 15.8294C8.20408 17.2474 9.52291 18.2797 11.0847 18.3087C9.86335 19.2656 8.32413 19.8369 6.65152 19.8369C6.3627 19.8369 6.07852 19.8201 5.79956 19.7864C7.37938 20.7991 9.25555 21.3906 11.2715 21.3906C17.8372 21.3906 21.4278 15.9512 21.4278 11.2343C21.4278 11.0795 21.4249 10.9252 21.4173 10.7727C22.1156 10.2681 22.7211 9.63944 23.1996 8.92377Z" fill="#070D59"/>
</svg>
