<svg width="42" height="42" viewBox="0 0 42 42" fill="none" xmlns="http://www.w3.org/2000/svg">
<rect width="42" height="42" rx="2" fill="white"/>
<path fill-rule="evenodd" clip-rule="evenodd" d="M33.5997 12.9241C32.6733 13.3357 31.6762 13.6128 30.6305 13.738C31.6981 13.0979 32.5179 12.085 32.9034 10.878C31.9055 11.471 30.7977 11.9002 29.6209 12.1329C28.6776 11.1283 27.3329 10.5 25.847 10.5C22.9921 10.5 20.6772 12.8149 20.6772 15.6699C20.6772 16.0747 20.7234 16.4695 20.8116 16.8483C16.5144 16.6333 12.7053 14.5746 10.1552 11.4466C9.71003 12.2101 9.45553 13.098 9.45553 14.0454C9.45553 15.8387 10.3669 17.4211 11.7553 18.3484C10.907 18.3216 10.1107 18.0889 9.41269 17.7017V17.7664C9.41269 20.2719 11.1959 22.3609 13.5595 22.8371C13.1261 22.9547 12.6692 23.0185 12.1979 23.0185C11.8645 23.0185 11.5403 22.9858 11.2244 22.9253C11.8821 24.979 13.7922 26.4741 16.0541 26.5161C14.2852 27.902 12.056 28.7293 9.6336 28.7293C9.2153 28.7293 8.80373 28.7049 8.39972 28.6562C10.6877 30.1228 13.4049 30.9795 16.3246 30.9795C25.8336 30.9795 31.0337 23.1017 31.0337 16.2704C31.0337 16.0461 31.0295 15.8227 31.0186 15.6018C32.0299 14.8711 32.9068 13.9606 33.5997 12.9241Z" fill="#070D59"/>
</svg>
