<svg width="20" height="20" viewBox="0 0 20 20" fill="none" xmlns="http://www.w3.org/2000/svg">
<g clip-path="url(#clip0_1501_1793)">
<path d="M10 20C15.5228 20 20 15.5228 20 10C20 4.47715 15.5228 0 10 0C4.47715 0 0 4.47715 0 10C0 15.5228 4.47715 20 10 20Z" fill="#F0F0F0"/>
<path d="M20 10C20 15.5228 15.5228 20 10 20C4.47719 20 0 15.5228 0 10" fill="#496E2D"/>
<path d="M17.3053 6.95876C16.9476 5.94458 15.9814 5.21747 14.8448 5.21747H12.6087C11.168 5.21747 10 6.38544 10 7.82618C10 8.29688 10.1253 8.74927 10.3434 9.13052C9.51308 9.12372 8.7446 9.13626 8.26089 9.13052C8.26089 8.12442 8.26089 6.84278 8.26089 6.57462L8.36362 6.47188C8.82479 6.01071 8.67101 5.24212 8.67101 5.24212C8.67101 5.24212 7.90249 5.08841 7.44132 5.54958L6.90386 6.08704H6.30437C4.98366 6.08704 3.91308 7.15766 3.91308 8.47833H5.65222V10.4349C5.65222 10.721 5.70991 10.9936 5.81417 11.2419L5.21741 11.7392H4.34784V10.8696H3.47827V12.6088H7.39132V14.3479H6.52175V15.2175H8.26089V13.4783L9.05796 12.5218H10.9421L11.7391 13.4783V14.3479H10.8696V15.2175H14.3478V10.4348C14.3478 9.71446 14.9318 9.13048 15.6521 9.13048C15.6707 9.13048 15.689 9.13114 15.7074 9.13188C15.6714 8.99251 15.6521 8.84637 15.6521 8.69571C15.6522 7.76411 16.3848 7.00364 17.3053 6.95876ZM12.6087 14.3479V12.5218H12.6812L13.4783 13.4783V14.3479H12.6087Z" fill="#D80027"/>
</g>
<defs>
<clipPath id="clip0_1501_1793">
<rect width="20" height="20" fill="white"/>
</clipPath>
</defs>
</svg>
