<svg width="42" height="42" viewBox="0 0 42 42" fill="none" xmlns="http://www.w3.org/2000/svg">
<rect width="42" height="42" rx="2" fill="white"/>
<path fill-rule="evenodd" clip-rule="evenodd" d="M34.3134 12.9971C34.7324 13.4162 35.0344 13.9377 35.1892 14.5098C36.0805 18.0976 35.8746 23.7642 35.2065 27.4905C35.0517 28.0626 34.7497 28.5841 34.3307 29.0032C33.9116 29.4222 33.3901 29.7242 32.818 29.879C30.7238 30.4501 22.295 30.4501 22.295 30.4501C22.295 30.4501 13.8661 30.4501 11.7719 29.879C11.1998 29.7242 10.6783 29.4222 10.2592 29.0032C9.84018 28.5841 9.53821 28.0626 9.38341 27.4905C8.48688 23.9182 8.73265 18.2482 9.36611 14.5271C9.52091 13.955 9.82287 13.4335 10.2419 13.0144C10.661 12.5954 11.1825 12.2934 11.7546 12.1386C13.8488 11.5674 22.2776 11.5501 22.2776 11.5501C22.2776 11.5501 30.7065 11.5501 32.8007 12.1213C33.3728 12.2761 33.8943 12.5781 34.3134 12.9971ZM26.5873 21.0001L19.595 25.0501V16.9501L26.5873 21.0001Z" fill="#070D59"/>
</svg>
