<svg width="29" height="29" viewBox="0 0 29 29" fill="none" xmlns="http://www.w3.org/2000/svg">
<rect width="29" height="29" rx="2" fill="#F9F9F9"/>
<path fill-rule="evenodd" clip-rule="evenodd" d="M23.6926 8.9742C23.9819 9.26355 24.1904 9.62364 24.2973 10.0186C24.9127 12.496 24.7705 16.4086 24.3092 18.9816C24.2024 19.3765 23.9939 19.7367 23.7045 20.026C23.4152 20.3153 23.0551 20.5238 22.6601 20.6307C21.2141 21.0251 15.3941 21.0251 15.3941 21.0251C15.3941 21.0251 9.57422 21.0251 8.1282 20.6307C7.73321 20.5238 7.3731 20.3153 7.08375 20.026C6.79441 19.7367 6.58591 19.3765 6.47902 18.9816C5.85999 16.515 6.02968 12.6 6.46708 10.0306C6.57396 9.6356 6.78246 9.27549 7.07181 8.98615C7.36115 8.6968 7.72126 8.4883 8.11625 8.38142C9.56227 7.98705 15.3822 7.9751 15.3822 7.9751C15.3822 7.9751 21.2021 7.9751 22.6481 8.36946C23.0431 8.47635 23.4032 8.68485 23.6926 8.9742ZM18.3579 14.5001L13.5298 17.2965V11.7037L18.3579 14.5001Z" fill="#070D59"/>
</svg>
